<svg width="24" height="24" viewBox="0 0 24 24" fill="none" xmlns="http://www.w3.org/2000/svg">
<g clip-path="url(#clip0_2470_15815)">
<path d="M13.4655 17.1048C13.2711 17.1048 13.0846 17.0276 12.9471 16.8901C12.8097 16.7526 12.7324 16.5662 12.7324 16.3717V7.57487C12.7324 7.38045 12.8097 7.19399 12.9471 7.05651C13.0846 6.91903 13.2711 6.8418 13.4655 6.8418C13.6599 6.8418 13.8464 6.91903 13.9839 7.05651C14.1213 7.19399 14.1986 7.38045 14.1986 7.57487V16.3717C14.1986 16.5662 14.1213 16.7526 13.9839 16.8901C13.8464 17.0276 13.6599 17.1048 13.4655 17.1048Z" fill="black"/>
<path d="M19.8188 12.7064H13.789C13.5946 12.7064 13.4081 12.6291 13.2707 12.4917C13.1332 12.3542 13.056 12.1677 13.056 11.9733C13.056 11.7789 13.1332 11.5924 13.2707 11.4549C13.4081 11.3175 13.5946 11.2402 13.789 11.2402H19.8188C20.6271 11.2402 21.2849 10.5824 21.2849 9.77409C21.2849 8.96575 20.6271 8.30794 19.8188 8.30794H13.4655C13.2711 8.30794 13.0846 8.23071 12.9471 8.09323C12.8097 7.95575 12.7324 7.76929 12.7324 7.57487C12.7324 7.38045 12.8097 7.19399 12.9471 7.05651C13.0846 6.91903 13.2711 6.8418 13.4655 6.8418H19.8188C21.4355 6.8418 22.7511 8.15742 22.7511 9.77409C22.7511 11.3908 21.4355 12.7064 19.8188 12.7064Z" fill="black"/>
<path d="M20.7969 17.1048H13.5453C13.3509 17.1048 13.1644 17.0276 13.027 16.8901C12.8895 16.7526 12.8122 16.5662 12.8122 16.3717C12.8122 16.1773 12.8895 15.9909 13.027 15.8534C13.1644 15.7159 13.3509 15.6387 13.5453 15.6387H20.7969C21.6052 15.6387 22.263 14.9809 22.263 14.1725C22.263 13.3642 21.6052 12.7064 20.7969 12.7064H13.4661C13.2717 12.7064 13.0853 12.6291 12.9478 12.4917C12.8103 12.3542 12.7331 12.1677 12.7331 11.9733C12.7331 11.7789 12.8103 11.5924 12.9478 11.4549C13.0853 11.3175 13.2717 11.2402 13.4661 11.2402H20.7969C22.4135 11.2402 23.7292 12.5559 23.7292 14.1725C23.7292 15.7892 22.4135 17.1048 20.7969 17.1048ZM10.5339 17.1048C10.3394 17.1048 10.153 17.0276 10.0155 16.8901C9.87802 16.7526 9.80078 16.5662 9.80078 16.3717V7.57487C9.80078 7.38045 9.87802 7.19399 10.0155 7.05651C10.153 6.91903 10.3394 6.8418 10.5339 6.8418C10.7283 6.8418 10.9147 6.91903 11.0522 7.05651C11.1897 7.19399 11.2669 7.38045 11.2669 7.57487V16.3717C11.2669 16.5662 11.1897 16.7526 11.0522 16.8901C10.9147 17.0276 10.7283 17.1048 10.5339 17.1048Z" fill="black"/>
<path d="M10.2091 12.7064H4.17936C2.56269 12.7064 1.24707 11.3908 1.24707 9.77409C1.24707 8.15742 2.56269 6.8418 4.17936 6.8418H10.5327C10.7271 6.8418 10.9135 6.91903 11.051 7.05651C11.1885 7.19399 11.2657 7.38045 11.2657 7.57487C11.2657 7.76929 11.1885 7.95575 11.051 8.09323C10.9135 8.23071 10.7271 8.30794 10.5327 8.30794H4.17936C3.37103 8.30794 2.71322 8.96575 2.71322 9.77409C2.71322 10.5824 3.37103 11.2402 4.17936 11.2402H10.2091C10.4036 11.2402 10.59 11.3175 10.7275 11.4549C10.865 11.5924 10.9422 11.7789 10.9422 11.9733C10.9422 12.1677 10.865 12.3542 10.7275 12.4917C10.59 12.6291 10.4036 12.7064 10.2091 12.7064Z" fill="black"/>
<path d="M10.4544 17.1035H3.2028C1.58613 17.1035 0.270508 15.7879 0.270508 14.1712C0.270508 12.5546 1.58613 11.239 3.2028 11.239H10.5335C10.728 11.239 10.9144 11.3162 11.0519 11.4537C11.1894 11.5911 11.2666 11.7776 11.2666 11.972C11.2666 12.1665 11.1894 12.3529 11.0519 12.4904C10.9144 12.6279 10.728 12.7051 10.5335 12.7051H3.2028C2.39446 12.7051 1.73665 13.3629 1.73665 14.1712C1.73665 14.9796 2.39446 15.6374 3.2028 15.6374H10.4544C10.6488 15.6374 10.8352 15.7146 10.9727 15.8521C11.1102 15.9896 11.1874 16.176 11.1874 16.3705C11.1874 16.5649 11.1102 16.7514 10.9727 16.8888C10.8352 17.0263 10.6488 17.1035 10.4544 17.1035ZM9.06738 11.239C8.89387 11.2379 8.72635 11.1753 8.59457 11.0624C8.46278 10.9496 8.37523 10.7937 8.34747 10.6224C8.3197 10.4511 8.35351 10.2755 8.44289 10.1268C8.53227 9.97807 8.67145 9.86582 8.83573 9.80995L14.7003 7.85509C14.8825 7.80239 15.078 7.82223 15.2458 7.91046C15.4137 7.99869 15.5409 8.14846 15.6008 8.32839C15.6607 8.50832 15.6486 8.70445 15.5671 8.87569C15.4856 9.04692 15.341 9.17997 15.1636 9.24695L9.29903 11.2018C9.22417 11.226 9.14604 11.2385 9.06738 11.239Z" fill="black"/>
<path d="M9.06727 13.6843C8.89375 13.6832 8.72624 13.6206 8.59445 13.5078C8.46266 13.3949 8.37512 13.239 8.34735 13.0677C8.31959 12.8964 8.35339 12.7208 8.44278 12.5721C8.53216 12.4234 8.67134 12.3111 8.83562 12.2553L14.7002 10.3004C14.8824 10.2477 15.0779 10.2675 15.2457 10.3558C15.4136 10.444 15.5408 10.5938 15.6007 10.7737C15.6606 10.9536 15.6485 11.1498 15.567 11.321C15.4855 11.4922 15.3409 11.6253 15.1635 11.6923L9.29892 13.6471C9.22406 13.6713 9.14593 13.6838 9.06727 13.6843ZM9.06727 16.1278C8.89375 16.1267 8.72624 16.0642 8.59445 15.9513C8.46266 15.8385 8.37512 15.6826 8.34735 15.5113C8.31959 15.34 8.35339 15.1644 8.44278 15.0157C8.53216 14.867 8.67134 14.7547 8.83562 14.6988L14.7002 12.744C14.7916 12.7136 14.8881 12.7014 14.9842 12.7083C15.0802 12.7152 15.174 12.7409 15.2601 12.784C15.3463 12.8271 15.4231 12.8868 15.4862 12.9596C15.5492 13.0324 15.5974 13.1169 15.6278 13.2083C15.6582 13.2997 15.6703 13.3961 15.6635 13.4922C15.6566 13.5883 15.6309 13.6821 15.5878 13.7682C15.5446 13.8543 15.485 13.9311 15.4122 13.9942C15.3394 14.0573 15.2549 14.1054 15.1635 14.1358L9.29892 16.0907C9.22406 16.1149 9.14593 16.1274 9.06727 16.1278Z" fill="black"/>
</g>
<defs>
<clipPath id="clip0_2470_15815">
<rect width="23.4583" height="23.4583" fill="white" transform="translate(0.270508)"/>
</clipPath>
</defs>
</svg>
